<?xml version="1.0" encoding="utf-8"?>
<!-- Generator: Adobe Illustrator 16.0.4, SVG Export Plug-In . SVG Version: 6.00 Build 0)  -->
<!DOCTYPE svg PUBLIC "-//W3C//DTD SVG 1.1//EN" "http://www.w3.org/Graphics/SVG/1.1/DTD/svg11.dtd">
<svg version="1.1" id="Layer_1" xmlns="http://www.w3.org/2000/svg" xmlns:xlink="http://www.w3.org/1999/xlink" x="0px" y="0px"
	 width="389px" height="127px" viewBox="0 0 389 127" enable-background="new 0 0 389 127" xml:space="preserve">
<g>
	<g>
		<path fill="#ACCDEC" d="M164.696,120.765l-56.122-0.135l-12.08-14.699l34.448-41.288c2.854-3.458,4.965-6.561,6.329-9.352
			c1.368-2.794,2.036-5.402,2.018-7.812c-0.021-3.708-1.225-6.723-3.576-9.05c-2.351-2.329-5.418-3.492-9.233-3.465
			c-4.53,0.031-8.013,1.509-10.422,4.412c-2.431,2.897-3.626,7.124-3.578,12.615v1.32l-25.491,0.17v-0.736
			c-0.067-12.022,3.379-21.53,10.356-28.473c6.978-6.971,16.565-10.473,28.73-10.552c11.876-0.075,21.375,2.943,28.467,9.043
			c7.088,6.091,10.649,14.215,10.714,24.409c0.033,4.986-1.045,9.832-3.236,14.551c-2.201,4.728-5.856,9.921-10.937,15.542
			l-19.011,21.203l32.485-0.199L164.696,120.765z"/>
		<path fill="#ACCDEC" d="M71.414,119.657l-13.756-16.863l-0.034-6.801L21.8,96.229L9.368,82.804l-0.065-7.352l39.091-61.074
			l32.965-0.2l0.361,60.827l11.787-0.096l0.131,20.875l-11.785,0.07l0.153,23.756L71.414,119.657z M57.493,75.155L57.3,44.307
			c-0.027-2.862,0.025-5.246,0.128-7.138c0.107-1.908,0.275-3.536,0.528-4.898c-0.916,2.091-1.93,4.161-3.045,6.255
			c-1.126,2.077-2.488,4.41-4.131,6.975L31.525,75.304L57.493,75.155z"/>
		<g>
			<path fill="#ACCDEC" d="M301.738,120.765l-56.138-0.135l-12.072-14.682l34.454-41.306c2.858-3.437,4.987-6.561,6.336-9.352
				c1.357-2.781,2.022-5.386,2.014-7.812c-0.021-3.699-1.22-6.717-3.571-9.046c-2.351-2.324-5.428-3.482-9.256-3.469
				c-4.521,0.049-8.01,1.509-10.41,4.428c-2.428,2.882-3.62,7.108-3.565,12.613v1.306l-25.498,0.17v-0.732
				c-0.086-12.026,3.382-21.517,10.354-28.477c6.983-6.961,16.556-10.461,28.726-10.552c11.876-0.066,21.384,2.943,28.463,9.043
				c7.081,6.091,10.676,14.231,10.715,24.417c0.032,4.979-1.048,9.825-3.235,14.553c-2.189,4.718-5.851,9.912-10.925,15.532
				l-19.014,21.203l32.479-0.189L301.738,120.765z"/>
			<path fill="#ACCDEC" d="M359.071,119.8l-13.749-16.854l-0.026-6.789l-35.833,0.223l-12.444-13.422l-0.036-7.354l39.095-61.092
				l32.95-0.199l0.377,60.842l11.766-0.092l0.14,20.869l-11.795,0.078l0.169,23.754L359.071,119.8z M345.148,75.304l-0.176-30.854
				c-0.021-2.835,0.021-5.227,0.146-7.135c0.098-1.905,0.263-3.54,0.499-4.885c-0.896,2.071-1.93,4.155-3.034,6.238
				c-1.126,2.081-2.488,4.406-4.139,6.995l-19.252,29.792L345.148,75.304z"/>
		</g>
	</g>
	<g>
		<path fill="#ABA270" d="M184.06,98.735l11.605-3.918l0.207-0.086c1.633-0.584,2.928-0.943,3.916-1.107
			c-0.568-0.113-1.132-0.234-1.754-0.404c-0.617-0.156-1.4-0.395-2.369-0.703l-11.656-3.918l-0.025-8.072l26.39,9.402l0.02,6.568
			l-11.907,3.955c-0.696,0.211-1.369,0.41-2.048,0.578c-0.702,0.156-1.372,0.328-2.047,0.457c1.048,0.195,2.376,0.527,3.94,0.998
			l0.191,0.055l11.907,3.844l0.041,6.564l-26.335,9.58l-0.013-8.039l11.63-3.986c0.861-0.299,1.598-0.523,2.232-0.713
			c0.642-0.172,1.259-0.32,1.858-0.422c-0.87-0.158-2.079-0.49-3.62-0.984c-0.217-0.084-0.373-0.133-0.488-0.176l-11.669-3.859
			L184.06,98.735z"/>
		<path fill="#ABA270" d="M198.966,53.197l0.093,20.046c2.017-0.045,3.599-0.578,4.677-1.599c1.123-1.033,1.666-2.477,1.646-4.375
			c0-1.404-0.273-2.594-0.795-3.557c-0.543-0.951-1.336-1.705-2.398-2.183L205,54.528c2.032,0.836,3.58,2.285,4.667,4.415
			c1.145,2.115,1.69,4.709,1.695,7.786c0.023,4.6-1.234,8.276-3.781,11.073c-2.522,2.779-5.883,4.176-10.061,4.191
			c-4.105,0.018-7.508-1.369-10.226-4.117c-2.745-2.758-4.107-6.259-4.131-10.509c-0.006-4.357,1.364-7.795,4.063-10.333
			c2.768-2.531,6.512-3.815,11.295-3.837H198.966z M193.749,62.363c-1.487,0.179-2.68,0.753-3.581,1.734
			c-0.87,0.969-1.331,2.158-1.318,3.561c0,1.494,0.405,2.703,1.243,3.619c0.838,0.883,2.062,1.481,3.714,1.769L193.749,62.363z"/>
		<path fill="#ABA270" d="M208.355,52.524l-7.108-1.883c1.188-1.354,2.082-2.863,2.715-4.49c0.616-1.632,0.943-3.263,0.943-4.919
			c0-1.151-0.205-2.037-0.587-2.658c-0.38-0.612-0.921-0.911-1.621-0.911c-1.17,0.011-2.038,1.241-2.591,3.675
			c-0.201,0.819-0.367,1.457-0.496,1.935c-0.75,2.802-1.744,4.822-2.986,6.09c-1.229,1.278-2.848,1.903-4.832,1.921
			c-2.56,0.025-4.597-0.94-6.129-2.87c-1.531-1.899-2.305-4.515-2.335-7.791c-0.01-1.701,0.183-3.42,0.583-5.159
			c0.366-1.744,0.983-3.528,1.776-5.377l6.412,1.905c-0.84,1.239-1.474,2.499-1.89,3.772c-0.457,1.255-0.653,2.522-0.662,3.792
			c0.009,1.065,0.173,1.861,0.524,2.405c0.323,0.526,0.799,0.796,1.437,0.796c0.937,0,1.722-1.208,2.347-3.642
			c0.173-0.561,0.284-0.983,0.334-1.255c0.918-3.22,2.014-5.464,3.229-6.728c1.239-1.251,2.941-1.905,5.045-1.905
			c2.709-0.013,4.867,1.022,6.552,3.065c1.662,2.078,2.503,4.803,2.525,8.207c0,2.307-0.258,4.439-0.784,6.418
			C210.248,48.916,209.44,50.78,208.355,52.524"/>
		<polygon fill="#ABA270" points="210.393,18.643 205.098,22.959 190.638,22.999 190.659,26.94 184.082,26.948 184.066,23.025 
			176.215,23.064 176.167,13.914 184.017,13.889 184.017,9.957 190.581,9.93 190.595,13.866 210.373,13.772 		"/>
	</g>
</g>
<g>
</g>
<g>
</g>
<g>
</g>
<g>
</g>
<g>
</g>
<g>
</g>
</svg>
